# xmcd
#
# Track frame offsets: 
#        150
#        6378
#        17890
#        31046
#        41419
#        65938
#        82316
#        107662
#        124689
#        144534
#        167292
#        188536
#        217829
#        246954
#
# Disc length: 3557 seconds
#
# Revision: 0
# Processed by: cddbd v1.5.2PL0 Copyright (c) Steve Scherf et al.
# Submitted via: ExactAudioCopy v0.95b4
#
DISCID=b90de30e
DTITLE=David Grisman and Tony Rice - 1995-04-30 Merlefest Wilkesboro, 
DTITLE=NC
DYEAR=1995
DGENRE=Bluegrass
TTITLE0=Tuning
TTITLE1=Turn of the Century
TTITLE2=Good Old Mountain Dew
TTITLE3=Wildwood Flowers
TTITLE4=Vintage Gintage Blues
TTITLE5=I Don't Want Your Mandolins, Mister
TTITLE6=Swing 42
TTITLE7=I Am a Pilgrim
TTITLE8=O Solo Mio
TTITLE9=Watson's Blues
TTITLE10=Fishscale
TTITLE11=Devlin
TTITLE12=Cedar Hill
TTITLE13=Take 1
EXTD=
EXTT0=
EXTT1=
EXTT2=
EXTT3=
EXTT4=
EXTT5=
EXTT6=
EXTT7=
EXTT8=
EXTT9=
EXTT10=
EXTT11=
EXTT12=
EXTT13=
PLAYORDER=
